999
"DXF R12 Output" (www.mydxf.blogspot.com)
 0 
SECTION
 2 
HEADER
 9 
$ACADVER
 1 
AC1009
 9 
$EXTMIN
 10 
 0 
 20 
 0 
 9 
$EXTMAX
 10 
 8.5 
 20 
 11 
 0 
ENDSEC
 0 
SECTION
 2 
ENTITIES
0
LINE
8
Layer 1
10
0.793749
20
297.794000
11
-0.793749
21
296.206000
0
LINE
8
Layer 1
10
0.000000
20
298.323000
11
0.000000
21
295.677000
0
LINE
8
Layer 1
10
2.116660
20
295.942000
11
1.058330
21
294.883670
0
LINE
8
Layer 1
10
1.587500
20
296.471000
11
0.529170
21
295.412670
0
LINE
8
Layer 1
10
1.058330
20
297.000000
11
0.000000
21
295.941670
0
LINE
8
0
10
107.627000
20
253.104000
11
107.480304
21
253.457096
0
LINE
8
0
10
107.480304
20
253.457096
11
107.127000
21
253.603293
0
LINE
8
0
10
107.127000
20
253.603293
11
106.773697
21
253.457096
0
LINE
8
0
10
106.773697
20
253.457096
11
106.627001
21
253.104000
0
LINE
8
0
10
106.627001
20
253.104000
11
106.773697
21
252.750904
0
LINE
8
0
10
106.773697
20
252.750904
11
107.127000
21
252.604707
0
LINE
8
0
10
107.127000
20
252.604707
11
107.480304
21
252.750904
0
LINE
8
0
10
107.480304
20
252.750904
11
107.627000
21
253.104000
0
LINE
8
0
10
107.627000
20
253.104000
11
107.627000
21
253.104000
0
LINE
8
0
10
91.988300
20
249.384000
11
91.854325
21
249.883999
0
LINE
8
0
10
91.854325
20
249.883999
11
91.488299
21
250.250025
0
LINE
8
0
10
91.488299
20
250.250025
11
90.988300
21
250.383999
0
LINE
8
0
10
90.988300
20
250.383999
11
90.488300
21
250.250025
0
LINE
8
0
10
90.488300
20
250.250025
11
90.122275
21
249.883999
0
LINE
8
0
10
90.122275
20
249.883999
11
89.988301
21
249.384000
0
LINE
8
0
10
89.988301
20
249.384000
11
90.122276
21
248.884000
0
LINE
8
0
10
90.122276
20
248.884000
11
90.488301
21
248.517975
0
LINE
8
0
10
90.488301
20
248.517975
11
90.988300
21
248.384001
0
LINE
8
0
10
90.988300
20
248.384001
11
91.488300
21
248.517975
0
LINE
8
0
10
91.488300
20
248.517975
11
91.854325
21
248.884000
0
LINE
8
0
10
91.854325
20
248.884000
11
91.988299
21
249.384000
0
LINE
8
0
10
91.988299
20
249.384000
11
91.988300
21
249.384000
0
LINE
8
0
10
96.346800
20
249.384000
11
96.212825
21
249.883999
0
LINE
8
0
10
96.212825
20
249.883999
11
95.846799
21
250.250025
0
LINE
8
0
10
95.846799
20
250.250025
11
95.346800
21
250.383999
0
LINE
8
0
10
95.346800
20
250.383999
11
94.846800
21
250.250025
0
LINE
8
0
10
94.846800
20
250.250025
11
94.480775
21
249.883999
0
LINE
8
0
10
94.480775
20
249.883999
11
94.346801
21
249.384000
0
LINE
8
0
10
94.346801
20
249.384000
11
94.480776
21
248.884000
0
LINE
8
0
10
94.480776
20
248.884000
11
94.846801
21
248.517975
0
LINE
8
0
10
94.846801
20
248.517975
11
95.346801
21
248.384001
0
LINE
8
0
10
95.346801
20
248.384001
11
95.846800
21
248.517975
0
LINE
8
0
10
95.846800
20
248.517975
11
96.212825
21
248.884000
0
LINE
8
0
10
96.212825
20
248.884000
11
96.346800
21
249.384000
0
LINE
8
0
10
96.346800
20
249.384000
11
96.346800
21
249.384000
0
LINE
8
0
10
87.627100
20
249.384000
11
87.493125
21
249.883999
0
LINE
8
0
10
87.493125
20
249.883999
11
87.127099
21
250.250025
0
LINE
8
0
10
87.127099
20
250.250025
11
86.627100
21
250.383999
0
LINE
8
0
10
86.627100
20
250.383999
11
86.127100
21
250.250025
0
LINE
8
0
10
86.127100
20
250.250025
11
85.761075
21
249.883999
0
LINE
8
0
10
85.761075
20
249.883999
11
85.627101
21
249.384000
0
LINE
8
0
10
85.627101
20
249.384000
11
85.761076
21
248.884000
0
LINE
8
0
10
85.761076
20
248.884000
11
86.127101
21
248.517975
0
LINE
8
0
10
86.127101
20
248.517975
11
86.627100
21
248.384001
0
LINE
8
0
10
86.627100
20
248.384001
11
87.127100
21
248.517975
0
LINE
8
0
10
87.127100
20
248.517975
11
87.493125
21
248.884000
0
LINE
8
0
10
87.493125
20
248.884000
11
87.627099
21
249.384000
0
LINE
8
0
10
87.627099
20
249.384000
11
87.627100
21
249.384000
0
LINE
8
0
10
100.708000
20
249.384000
11
100.574025
21
249.883999
0
LINE
8
0
10
100.574025
20
249.883999
11
100.207999
21
250.250025
0
LINE
8
0
10
100.207999
20
250.250025
11
99.708000
21
250.383999
0
LINE
8
0
10
99.708000
20
250.383999
11
99.208000
21
250.250025
0
LINE
8
0
10
99.208000
20
250.250025
11
98.841975
21
249.883999
0
LINE
8
0
10
98.841975
20
249.883999
11
98.708001
21
249.384000
0
LINE
8
0
10
98.708001
20
249.384000
11
98.841976
21
248.884000
0
LINE
8
0
10
98.841976
20
248.884000
11
99.208001
21
248.517975
0
LINE
8
0
10
99.208001
20
248.517975
11
99.708000
21
248.384001
0
LINE
8
0
10
99.708000
20
248.384001
11
100.208000
21
248.517975
0
LINE
8
0
10
100.208000
20
248.517975
11
100.574025
21
248.884000
0
LINE
8
0
10
100.574025
20
248.884000
11
100.707999
21
249.384000
0
LINE
8
0
10
100.707999
20
249.384000
11
100.708000
21
249.384000
0
LINE
8
0
10
125.133000
20
251.034000
11
125.133000
21
250.374000
0
LINE
8
0
10
125.133000
20
250.374000
11
125.011193
21
249.770670
0
LINE
8
0
10
125.011193
20
249.770670
11
124.679016
21
249.277984
0
LINE
8
0
10
124.679016
20
249.277984
11
124.186330
21
248.945807
0
LINE
8
0
10
124.186330
20
248.945807
11
123.583000
21
248.824000
0
LINE
8
0
10
123.583000
20
248.824000
11
117.143000
21
248.824000
0
LINE
8
0
10
117.143000
20
248.824000
11
116.549841
21
248.941987
0
LINE
8
0
10
116.549841
20
248.941987
11
116.046984
21
249.277984
0
LINE
8
0
10
116.046984
20
249.277984
11
115.710987
21
249.780841
0
LINE
8
0
10
115.710987
20
249.780841
11
115.593000
21
250.374000
0
LINE
8
0
10
115.593000
20
250.374000
11
115.593000
21
251.034000
0
LINE
8
0
10
115.593000
20
251.034000
11
115.710987
21
251.627159
0
LINE
8
0
10
115.710987
20
251.627159
11
116.046984
21
252.130016
0
LINE
8
0
10
116.046984
20
252.130016
11
116.549841
21
252.466013
0
LINE
8
0
10
116.549841
20
252.466013
11
117.143000
21
252.584000
0
LINE
8
0
10
117.143000
20
252.584000
11
123.583000
21
252.584000
0
LINE
8
0
10
123.583000
20
252.584000
11
124.186330
21
252.462193
0
LINE
8
0
10
124.186330
20
252.462193
11
124.679016
21
252.130016
0
LINE
8
0
10
124.679016
20
252.130016
11
125.011193
21
251.637330
0
LINE
8
0
10
125.011193
20
251.637330
11
125.133000
21
251.034000
0
LINE
8
0
10
125.133000
20
251.034000
11
125.133000
21
251.034000
0
LINE
8
0
10
73.057600
20
251.034000
11
73.057600
21
250.374000
0
LINE
8
0
10
73.057600
20
250.374000
11
72.939613
21
249.780841
0
LINE
8
0
10
72.939613
20
249.780841
11
72.603616
21
249.277984
0
LINE
8
0
10
72.603616
20
249.277984
11
72.100759
21
248.941987
0
LINE
8
0
10
72.100759
20
248.941987
11
71.507600
21
248.824000
0
LINE
8
0
10
71.507600
20
248.824000
11
65.067600
21
248.824000
0
LINE
8
0
10
65.067600
20
248.824000
11
64.464270
21
248.945807
0
LINE
8
0
10
64.464270
20
248.945807
11
63.971584
21
249.277984
0
LINE
8
0
10
63.971584
20
249.277984
11
63.639407
21
249.770670
0
LINE
8
0
10
63.639407
20
249.770670
11
63.517600
21
250.374000
0
LINE
8
0
10
63.517600
20
250.374000
11
63.517600
21
251.034000
0
LINE
8
0
10
63.517600
20
251.034000
11
63.639407
21
251.637330
0
LINE
8
0
10
63.639407
20
251.637330
11
63.971584
21
252.130016
0
LINE
8
0
10
63.971584
20
252.130016
11
64.464270
21
252.462193
0
LINE
8
0
10
64.464270
20
252.462193
11
65.067600
21
252.584000
0
LINE
8
0
10
65.067600
20
252.584000
11
71.507600
21
252.584000
0
LINE
8
0
10
71.507600
20
252.584000
11
72.100759
21
252.466013
0
LINE
8
0
10
72.100759
20
252.466013
11
72.603616
21
252.130016
0
LINE
8
0
10
72.603616
20
252.130016
11
72.939613
21
251.627159
0
LINE
8
0
10
72.939613
20
251.627159
11
73.057600
21
251.034000
0
LINE
8
0
10
73.057600
20
251.034000
11
73.057600
21
251.034000
0
LINE
8
0
10
135.686000
20
255.604000
11
135.409252
21
256.964458
0
LINE
8
0
10
135.409252
20
256.964458
11
134.658786
21
258.075048
0
LINE
8
0
10
134.658786
20
258.075048
11
133.546929
21
258.823636
0
LINE
8
0
10
133.546929
20
258.823636
11
132.186005
21
259.098084
0
LINE
8
0
10
132.186005
20
259.098084
11
130.825081
21
258.823636
0
LINE
8
0
10
130.825081
20
258.823636
11
129.713224
21
258.075048
0
LINE
8
0
10
129.713224
20
258.075048
11
128.962758
21
256.964458
0
LINE
8
0
10
128.962758
20
256.964458
11
128.686010
21
255.604000
0
LINE
8
0
10
128.686010
20
255.604000
11
128.962758
21
254.243542
0
LINE
8
0
10
128.962758
20
254.243542
11
129.713224
21
253.132952
0
LINE
8
0
10
129.713224
20
253.132952
11
130.825081
21
252.384364
0
LINE
8
0
10
130.825081
20
252.384364
11
132.186005
21
252.109916
0
LINE
8
0
10
132.186005
20
252.109916
11
133.546929
21
252.384364
0
LINE
8
0
10
133.546929
20
252.384364
11
134.658786
21
253.132952
0
LINE
8
0
10
134.658786
20
253.132952
11
135.409252
21
254.243542
0
LINE
8
0
10
135.409252
20
254.243542
11
135.686000
21
255.604000
0
LINE
8
0
10
135.686000
20
255.604000
11
135.686000
21
255.604000
0
LINE
8
0
10
165.632000
20
286.509000
11
37.632000
21
286.509000
0
LINE
8
0
10
37.632000
20
286.509000
11
37.632000
21
243.509000
0
LINE
8
0
10
37.632000
20
243.509000
11
165.632000
21
243.509000
0
LINE
8
0
10
165.632000
20
243.509000
11
165.632000
21
286.509000
0
LINE
8
0
10
63.832000
20
278.509000
11
63.582763
21
280.387604
0
LINE
8
0
10
63.582763
20
280.387604
11
62.867375
21
282.108995
0
LINE
8
0
10
62.867375
20
282.108995
11
61.734299
21
283.589232
0
LINE
8
0
10
61.734299
20
283.589232
11
60.231995
21
284.744374
0
LINE
8
0
10
60.231995
20
284.744374
11
58.480460
21
285.467836
0
LINE
8
0
10
58.480460
20
285.467836
11
56.632000
21
285.708990
0
LINE
8
0
10
56.632000
20
285.708990
11
54.783540
21
285.467836
0
LINE
8
0
10
54.783540
20
285.467836
11
53.032005
21
284.744374
0
LINE
8
0
10
53.032005
20
284.744374
11
51.529701
21
283.589232
0
LINE
8
0
10
51.529701
20
283.589232
11
50.396626
21
282.108995
0
LINE
8
0
10
50.396626
20
282.108995
11
49.681241
21
280.387604
0
LINE
8
0
10
49.681241
20
280.387604
11
49.432010
21
278.509000
0
LINE
8
0
10
49.432010
20
278.509000
11
49.681244
21
276.630396
0
LINE
8
0
10
49.681244
20
276.630396
11
50.396630
21
274.909005
0
LINE
8
0
10
50.396630
20
274.909005
11
51.529706
21
273.428768
0
LINE
8
0
10
51.529706
20
273.428768
11
53.032010
21
272.273626
0
LINE
8
0
10
53.032010
20
272.273626
11
54.783545
21
271.550164
0
LINE
8
0
10
54.783545
20
271.550164
11
56.632005
21
271.309010
0
LINE
8
0
10
56.632005
20
271.309010
11
58.480465
21
271.550164
0
LINE
8
0
10
58.480465
20
271.550164
11
60.232000
21
272.273626
0
LINE
8
0
10
60.232000
20
272.273626
11
61.734304
21
273.428768
0
LINE
8
0
10
61.734304
20
273.428768
11
62.867379
21
274.909005
0
LINE
8
0
10
62.867379
20
274.909005
11
63.582764
21
276.630396
0
LINE
8
0
10
63.582764
20
276.630396
11
63.831995
21
278.509000
0
LINE
8
0
10
63.831995
20
278.509000
11
63.832000
21
278.509000
0
LINE
8
0
10
63.832000
20
261.509000
11
63.582763
21
263.387604
0
LINE
8
0
10
63.582763
20
263.387604
11
62.867375
21
265.108995
0
LINE
8
0
10
62.867375
20
265.108995
11
61.734299
21
266.589232
0
LINE
8
0
10
61.734299
20
266.589232
11
60.231995
21
267.744374
0
LINE
8
0
10
60.231995
20
267.744374
11
58.480460
21
268.467836
0
LINE
8
0
10
58.480460
20
268.467836
11
56.632000
21
268.708990
0
LINE
8
0
10
56.632000
20
268.708990
11
54.783540
21
268.467836
0
LINE
8
0
10
54.783540
20
268.467836
11
53.032005
21
267.744374
0
LINE
8
0
10
53.032005
20
267.744374
11
51.529701
21
266.589232
0
LINE
8
0
10
51.529701
20
266.589232
11
50.396626
21
265.108995
0
LINE
8
0
10
50.396626
20
265.108995
11
49.681241
21
263.387604
0
LINE
8
0
10
49.681241
20
263.387604
11
49.432010
21
261.509000
0
LINE
8
0
10
49.432010
20
261.509000
11
49.681244
21
259.630396
0
LINE
8
0
10
49.681244
20
259.630396
11
50.396630
21
257.909005
0
LINE
8
0
10
50.396630
20
257.909005
11
51.529706
21
256.428768
0
LINE
8
0
10
51.529706
20
256.428768
11
53.032010
21
255.273626
0
LINE
8
0
10
53.032010
20
255.273626
11
54.783545
21
254.550164
0
LINE
8
0
10
54.783545
20
254.550164
11
56.632005
21
254.309010
0
LINE
8
0
10
56.632005
20
254.309010
11
58.480465
21
254.550164
0
LINE
8
0
10
58.480465
20
254.550164
11
60.232000
21
255.273626
0
LINE
8
0
10
60.232000
20
255.273626
11
61.734304
21
256.428768
0
LINE
8
0
10
61.734304
20
256.428768
11
62.867379
21
257.909005
0
LINE
8
0
10
62.867379
20
257.909005
11
63.582764
21
259.630396
0
LINE
8
0
10
63.582764
20
259.630396
11
63.831995
21
261.509000
0
LINE
8
0
10
63.831995
20
261.509000
11
63.832000
21
261.509000
0
LINE
8
0
10
93.832000
20
278.509000
11
93.582763
21
280.387604
0
LINE
8
0
10
93.582763
20
280.387604
11
92.867375
21
282.108995
0
LINE
8
0
10
92.867375
20
282.108995
11
91.734299
21
283.589232
0
LINE
8
0
10
91.734299
20
283.589232
11
90.231995
21
284.744374
0
LINE
8
0
10
90.231995
20
284.744374
11
88.480460
21
285.467836
0
LINE
8
0
10
88.480460
20
285.467836
11
86.632000
21
285.708990
0
LINE
8
0
10
86.632000
20
285.708990
11
84.783540
21
285.467836
0
LINE
8
0
10
84.783540
20
285.467836
11
83.032005
21
284.744374
0
LINE
8
0
10
83.032005
20
284.744374
11
81.529701
21
283.589232
0
LINE
8
0
10
81.529701
20
283.589232
11
80.396626
21
282.108995
0
LINE
8
0
10
80.396626
20
282.108995
11
79.681241
21
280.387604
0
LINE
8
0
10
79.681241
20
280.387604
11
79.432010
21
278.509000
0
LINE
8
0
10
79.432010
20
278.509000
11
79.681244
21
276.630396
0
LINE
8
0
10
79.681244
20
276.630396
11
80.396630
21
274.909005
0
LINE
8
0
10
80.396630
20
274.909005
11
81.529706
21
273.428768
0
LINE
8
0
10
81.529706
20
273.428768
11
83.032010
21
272.273626
0
LINE
8
0
10
83.032010
20
272.273626
11
84.783545
21
271.550164
0
LINE
8
0
10
84.783545
20
271.550164
11
86.632005
21
271.309010
0
LINE
8
0
10
86.632005
20
271.309010
11
88.480465
21
271.550164
0
LINE
8
0
10
88.480465
20
271.550164
11
90.232000
21
272.273626
0
LINE
8
0
10
90.232000
20
272.273626
11
91.734304
21
273.428768
0
LINE
8
0
10
91.734304
20
273.428768
11
92.867379
21
274.909005
0
LINE
8
0
10
92.867379
20
274.909005
11
93.582764
21
276.630396
0
LINE
8
0
10
93.582764
20
276.630396
11
93.831995
21
278.509000
0
LINE
8
0
10
93.831995
20
278.509000
11
93.832000
21
278.509000
0
LINE
8
0
10
93.832000
20
261.509000
11
93.582763
21
263.387604
0
LINE
8
0
10
93.582763
20
263.387604
11
92.867375
21
265.108995
0
LINE
8
0
10
92.867375
20
265.108995
11
91.734299
21
266.589232
0
LINE
8
0
10
91.734299
20
266.589232
11
90.231995
21
267.744374
0
LINE
8
0
10
90.231995
20
267.744374
11
88.480460
21
268.467836
0
LINE
8
0
10
88.480460
20
268.467836
11
86.632000
21
268.708990
0
LINE
8
0
10
86.632000
20
268.708990
11
84.783540
21
268.467836
0
LINE
8
0
10
84.783540
20
268.467836
11
83.032005
21
267.744374
0
LINE
8
0
10
83.032005
20
267.744374
11
81.529701
21
266.589232
0
LINE
8
0
10
81.529701
20
266.589232
11
80.396626
21
265.108995
0
LINE
8
0
10
80.396626
20
265.108995
11
79.681241
21
263.387604
0
LINE
8
0
10
79.681241
20
263.387604
11
79.432010
21
261.509000
0
LINE
8
0
10
79.432010
20
261.509000
11
79.681244
21
259.630396
0
LINE
8
0
10
79.681244
20
259.630396
11
80.396630
21
257.909005
0
LINE
8
0
10
80.396630
20
257.909005
11
81.529706
21
256.428768
0
LINE
8
0
10
81.529706
20
256.428768
11
83.032010
21
255.273626
0
LINE
8
0
10
83.032010
20
255.273626
11
84.783545
21
254.550164
0
LINE
8
0
10
84.783545
20
254.550164
11
86.632005
21
254.309010
0
LINE
8
0
10
86.632005
20
254.309010
11
88.480465
21
254.550164
0
LINE
8
0
10
88.480465
20
254.550164
11
90.232000
21
255.273626
0
LINE
8
0
10
90.232000
20
255.273626
11
91.734304
21
256.428768
0
LINE
8
0
10
91.734304
20
256.428768
11
92.867379
21
257.909005
0
LINE
8
0
10
92.867379
20
257.909005
11
93.582764
21
259.630396
0
LINE
8
0
10
93.582764
20
259.630396
11
93.831995
21
261.509000
0
LINE
8
0
10
93.831995
20
261.509000
11
93.832000
21
261.509000
0
LINE
8
0
10
123.832000
20
278.509000
11
123.582763
21
280.387604
0
LINE
8
0
10
123.582763
20
280.387604
11
122.867375
21
282.108995
0
LINE
8
0
10
122.867375
20
282.108995
11
121.734299
21
283.589232
0
LINE
8
0
10
121.734299
20
283.589232
11
120.231995
21
284.744374
0
LINE
8
0
10
120.231995
20
284.744374
11
118.480460
21
285.467836
0
LINE
8
0
10
118.480460
20
285.467836
11
116.632000
21
285.708990
0
LINE
8
0
10
116.632000
20
285.708990
11
114.783540
21
285.467836
0
LINE
8
0
10
114.783540
20
285.467836
11
113.032005
21
284.744374
0
LINE
8
0
10
113.032005
20
284.744374
11
111.529701
21
283.589232
0
LINE
8
0
10
111.529701
20
283.589232
11
110.396626
21
282.108995
0
LINE
8
0
10
110.396626
20
282.108995
11
109.681241
21
280.387604
0
LINE
8
0
10
109.681241
20
280.387604
11
109.432010
21
278.509000
0
LINE
8
0
10
109.432010
20
278.509000
11
109.681244
21
276.630396
0
LINE
8
0
10
109.681244
20
276.630396
11
110.396630
21
274.909005
0
LINE
8
0
10
110.396630
20
274.909005
11
111.529706
21
273.428768
0
LINE
8
0
10
111.529706
20
273.428768
11
113.032010
21
272.273626
0
LINE
8
0
10
113.032010
20
272.273626
11
114.783545
21
271.550164
0
LINE
8
0
10
114.783545
20
271.550164
11
116.632005
21
271.309010
0
LINE
8
0
10
116.632005
20
271.309010
11
118.480465
21
271.550164
0
LINE
8
0
10
118.480465
20
271.550164
11
120.232000
21
272.273626
0
LINE
8
0
10
120.232000
20
272.273626
11
121.734304
21
273.428768
0
LINE
8
0
10
121.734304
20
273.428768
11
122.867379
21
274.909005
0
LINE
8
0
10
122.867379
20
274.909005
11
123.582764
21
276.630396
0
LINE
8
0
10
123.582764
20
276.630396
11
123.831995
21
278.509000
0
LINE
8
0
10
123.831995
20
278.509000
11
123.832000
21
278.509000
0
LINE
8
0
10
123.832000
20
261.509000
11
123.582763
21
263.387604
0
LINE
8
0
10
123.582763
20
263.387604
11
122.867375
21
265.108995
0
LINE
8
0
10
122.867375
20
265.108995
11
121.734299
21
266.589232
0
LINE
8
0
10
121.734299
20
266.589232
11
120.231995
21
267.744374
0
LINE
8
0
10
120.231995
20
267.744374
11
118.480460
21
268.467836
0
LINE
8
0
10
118.480460
20
268.467836
11
116.632000
21
268.708990
0
LINE
8
0
10
116.632000
20
268.708990
11
114.783540
21
268.467836
0
LINE
8
0
10
114.783540
20
268.467836
11
113.032005
21
267.744374
0
LINE
8
0
10
113.032005
20
267.744374
11
111.529701
21
266.589232
0
LINE
8
0
10
111.529701
20
266.589232
11
110.396626
21
265.108995
0
LINE
8
0
10
110.396626
20
265.108995
11
109.681241
21
263.387604
0
LINE
8
0
10
109.681241
20
263.387604
11
109.432010
21
261.509000
0
LINE
8
0
10
109.432010
20
261.509000
11
109.681244
21
259.630396
0
LINE
8
0
10
109.681244
20
259.630396
11
110.396630
21
257.909005
0
LINE
8
0
10
110.396630
20
257.909005
11
111.529706
21
256.428768
0
LINE
8
0
10
111.529706
20
256.428768
11
113.032010
21
255.273626
0
LINE
8
0
10
113.032010
20
255.273626
11
114.783545
21
254.550164
0
LINE
8
0
10
114.783545
20
254.550164
11
116.632005
21
254.309010
0
LINE
8
0
10
116.632005
20
254.309010
11
118.480465
21
254.550164
0
LINE
8
0
10
118.480465
20
254.550164
11
120.232000
21
255.273626
0
LINE
8
0
10
120.232000
20
255.273626
11
121.734304
21
256.428768
0
LINE
8
0
10
121.734304
20
256.428768
11
122.867379
21
257.909005
0
LINE
8
0
10
122.867379
20
257.909005
11
123.582764
21
259.630396
0
LINE
8
0
10
123.582764
20
259.630396
11
123.831995
21
261.509000
0
LINE
8
0
10
123.831995
20
261.509000
11
123.832000
21
261.509000
0
LINE
8
0
10
153.832000
20
261.509000
11
153.582763
21
263.387604
0
LINE
8
0
10
153.582763
20
263.387604
11
152.867375
21
265.108995
0
LINE
8
0
10
152.867375
20
265.108995
11
151.734299
21
266.589232
0
LINE
8
0
10
151.734299
20
266.589232
11
150.231995
21
267.744374
0
LINE
8
0
10
150.231995
20
267.744374
11
148.480460
21
268.467836
0
LINE
8
0
10
148.480460
20
268.467836
11
146.632000
21
268.708990
0
LINE
8
0
10
146.632000
20
268.708990
11
144.783540
21
268.467836
0
LINE
8
0
10
144.783540
20
268.467836
11
143.032005
21
267.744374
0
LINE
8
0
10
143.032005
20
267.744374
11
141.529701
21
266.589232
0
LINE
8
0
10
141.529701
20
266.589232
11
140.396626
21
265.108995
0
LINE
8
0
10
140.396626
20
265.108995
11
139.681241
21
263.387604
0
LINE
8
0
10
139.681241
20
263.387604
11
139.432010
21
261.509000
0
LINE
8
0
10
139.432010
20
261.509000
11
139.681244
21
259.630396
0
LINE
8
0
10
139.681244
20
259.630396
11
140.396630
21
257.909005
0
LINE
8
0
10
140.396630
20
257.909005
11
141.529706
21
256.428768
0
LINE
8
0
10
141.529706
20
256.428768
11
143.032010
21
255.273626
0
LINE
8
0
10
143.032010
20
255.273626
11
144.783545
21
254.550164
0
LINE
8
0
10
144.783545
20
254.550164
11
146.632005
21
254.309010
0
LINE
8
0
10
146.632005
20
254.309010
11
148.480465
21
254.550164
0
LINE
8
0
10
148.480465
20
254.550164
11
150.232000
21
255.273626
0
LINE
8
0
10
150.232000
20
255.273626
11
151.734304
21
256.428768
0
LINE
8
0
10
151.734304
20
256.428768
11
152.867379
21
257.909005
0
LINE
8
0
10
152.867379
20
257.909005
11
153.582764
21
259.630396
0
LINE
8
0
10
153.582764
20
259.630396
11
153.831995
21
261.509000
0
LINE
8
0
10
153.831995
20
261.509000
11
153.832000
21
261.509000
0
LINE
8
0
10
153.832000
20
278.509000
11
153.582763
21
280.387604
0
LINE
8
0
10
153.582763
20
280.387604
11
152.867375
21
282.108995
0
LINE
8
0
10
152.867375
20
282.108995
11
151.734299
21
283.589232
0
LINE
8
0
10
151.734299
20
283.589232
11
150.231995
21
284.744374
0
LINE
8
0
10
150.231995
20
284.744374
11
148.480460
21
285.467836
0
LINE
8
0
10
148.480460
20
285.467836
11
146.632000
21
285.708990
0
LINE
8
0
10
146.632000
20
285.708990
11
144.783540
21
285.467836
0
LINE
8
0
10
144.783540
20
285.467836
11
143.032005
21
284.744374
0
LINE
8
0
10
143.032005
20
284.744374
11
141.529701
21
283.589232
0
LINE
8
0
10
141.529701
20
283.589232
11
140.396626
21
282.108995
0
LINE
8
0
10
140.396626
20
282.108995
11
139.681241
21
280.387604
0
LINE
8
0
10
139.681241
20
280.387604
11
139.432010
21
278.509000
0
LINE
8
0
10
139.432010
20
278.509000
11
139.681244
21
276.630396
0
LINE
8
0
10
139.681244
20
276.630396
11
140.396630
21
274.909005
0
LINE
8
0
10
140.396630
20
274.909005
11
141.529706
21
273.428768
0
LINE
8
0
10
141.529706
20
273.428768
11
143.032010
21
272.273626
0
LINE
8
0
10
143.032010
20
272.273626
11
144.783545
21
271.550164
0
LINE
8
0
10
144.783545
20
271.550164
11
146.632005
21
271.309010
0
LINE
8
0
10
146.632005
20
271.309010
11
148.480465
21
271.550164
0
LINE
8
0
10
148.480465
20
271.550164
11
150.232000
21
272.273626
0
LINE
8
0
10
150.232000
20
272.273626
11
151.734304
21
273.428768
0
LINE
8
0
10
151.734304
20
273.428768
11
152.867379
21
274.909005
0
LINE
8
0
10
152.867379
20
274.909005
11
153.582764
21
276.630396
0
LINE
8
0
10
153.582764
20
276.630396
11
153.831995
21
278.509000
0
LINE
8
0
10
153.831995
20
278.509000
11
153.832000
21
278.509000
0
LINE
8
0
10
108.669000
20
253.104000
11
108.462398
21
253.875050
0
LINE
8
0
10
108.462398
20
253.875050
11
107.897950
21
254.439498
0
LINE
8
0
10
107.897950
20
254.439498
11
107.126900
21
254.646100
0
LINE
8
0
10
107.126900
20
254.646100
11
106.355850
21
254.439498
0
LINE
8
0
10
106.355850
20
254.439498
11
105.791402
21
253.875050
0
LINE
8
0
10
105.791402
20
253.875050
11
105.584800
21
253.104000
0
LINE
8
0
10
105.584800
20
253.104000
11
105.705986
21
252.503745
0
LINE
8
0
10
105.705986
20
252.503745
11
106.036471
21
252.013571
0
LINE
8
0
10
106.036471
20
252.013571
11
106.526645
21
251.683086
0
LINE
8
0
10
106.526645
20
251.683086
11
107.126900
21
251.561900
0
LINE
8
0
10
107.126900
20
251.561900
11
107.727155
21
251.683086
0
LINE
8
0
10
107.727155
20
251.683086
11
108.217329
21
252.013571
0
LINE
8
0
10
108.217329
20
252.013571
11
108.547814
21
252.503745
0
LINE
8
0
10
108.547814
20
252.503745
11
108.669000
21
253.104000
0
LINE
8
0
10
108.669000
20
253.104000
11
108.669000
21
253.104000
0
LINE
8
0
10
62.882000
20
278.509000
11
62.665648
21
280.139733
0
LINE
8
0
10
62.665648
20
280.139733
11
62.044651
21
281.633995
0
LINE
8
0
10
62.044651
20
281.633995
11
61.061078
21
282.918922
0
LINE
8
0
10
61.061078
20
282.918922
11
59.756995
21
283.921650
0
LINE
8
0
10
59.756995
20
283.921650
11
58.236566
21
284.549655
0
LINE
8
0
10
58.236566
20
284.549655
11
56.632000
21
284.758990
0
LINE
8
0
10
56.632000
20
284.758990
11
55.027434
21
284.549655
0
LINE
8
0
10
55.027434
20
284.549655
11
53.507005
21
283.921650
0
LINE
8
0
10
53.507005
20
283.921650
11
52.202922
21
282.918922
0
LINE
8
0
10
52.202922
20
282.918922
11
51.219350
21
281.633995
0
LINE
8
0
10
51.219350
20
281.633995
11
50.598356
21
280.139733
0
LINE
8
0
10
50.598356
20
280.139733
11
50.382010
21
278.509000
0
LINE
8
0
10
50.382010
20
278.509000
11
50.598359
21
276.878267
0
LINE
8
0
10
50.598359
20
276.878267
11
51.219354
21
275.384005
0
LINE
8
0
10
51.219354
20
275.384005
11
52.202927
21
274.099078
0
LINE
8
0
10
52.202927
20
274.099078
11
53.507010
21
273.096350
0
LINE
8
0
10
53.507010
20
273.096350
11
55.027439
21
272.468345
0
LINE
8
0
10
55.027439
20
272.468345
11
56.632005
21
272.259010
0
LINE
8
0
10
56.632005
20
272.259010
11
58.236571
21
272.468345
0
LINE
8
0
10
58.236571
20
272.468345
11
59.757000
21
273.096350
0
LINE
8
0
10
59.757000
20
273.096350
11
61.061083
21
274.099078
0
LINE
8
0
10
61.061083
20
274.099078
11
62.044655
21
275.384005
0
LINE
8
0
10
62.044655
20
275.384005
11
62.665649
21
276.878267
0
LINE
8
0
10
62.665649
20
276.878267
11
62.881995
21
278.509000
0
LINE
8
0
10
62.881995
20
278.509000
11
62.882000
21
278.509000
0
LINE
8
0
10
62.882000
20
261.509000
11
62.665648
21
263.139733
0
LINE
8
0
10
62.665648
20
263.139733
11
62.044651
21
264.633995
0
LINE
8
0
10
62.044651
20
264.633995
11
61.061078
21
265.918922
0
LINE
8
0
10
61.061078
20
265.918922
11
59.756995
21
266.921650
0
LINE
8
0
10
59.756995
20
266.921650
11
58.236566
21
267.549655
0
LINE
8
0
10
58.236566
20
267.549655
11
56.632000
21
267.758990
0
LINE
8
0
10
56.632000
20
267.758990
11
55.027434
21
267.549655
0
LINE
8
0
10
55.027434
20
267.549655
11
53.507005
21
266.921650
0
LINE
8
0
10
53.507005
20
266.921650
11
52.202922
21
265.918922
0
LINE
8
0
10
52.202922
20
265.918922
11
51.219350
21
264.633995
0
LINE
8
0
10
51.219350
20
264.633995
11
50.598356
21
263.139733
0
LINE
8
0
10
50.598356
20
263.139733
11
50.382010
21
261.509000
0
LINE
8
0
10
50.382010
20
261.509000
11
50.598359
21
259.878267
0
LINE
8
0
10
50.598359
20
259.878267
11
51.219354
21
258.384005
0
LINE
8
0
10
51.219354
20
258.384005
11
52.202927
21
257.099078
0
LINE
8
0
10
52.202927
20
257.099078
11
53.507010
21
256.096350
0
LINE
8
0
10
53.507010
20
256.096350
11
55.027439
21
255.468345
0
LINE
8
0
10
55.027439
20
255.468345
11
56.632005
21
255.259010
0
LINE
8
0
10
56.632005
20
255.259010
11
58.236571
21
255.468345
0
LINE
8
0
10
58.236571
20
255.468345
11
59.757000
21
256.096350
0
LINE
8
0
10
59.757000
20
256.096350
11
61.061083
21
257.099078
0
LINE
8
0
10
61.061083
20
257.099078
11
62.044655
21
258.384005
0
LINE
8
0
10
62.044655
20
258.384005
11
62.665649
21
259.878267
0
LINE
8
0
10
62.665649
20
259.878267
11
62.881995
21
261.509000
0
LINE
8
0
10
62.881995
20
261.509000
11
62.882000
21
261.509000
0
LINE
8
0
10
92.882000
20
278.509000
11
92.665648
21
280.139733
0
LINE
8
0
10
92.665648
20
280.139733
11
92.044651
21
281.633995
0
LINE
8
0
10
92.044651
20
281.633995
11
91.061078
21
282.918922
0
LINE
8
0
10
91.061078
20
282.918922
11
89.756995
21
283.921650
0
LINE
8
0
10
89.756995
20
283.921650
11
88.236566
21
284.549655
0
LINE
8
0
10
88.236566
20
284.549655
11
86.632000
21
284.758990
0
LINE
8
0
10
86.632000
20
284.758990
11
85.027434
21
284.549655
0
LINE
8
0
10
85.027434
20
284.549655
11
83.507005
21
283.921650
0
LINE
8
0
10
83.507005
20
283.921650
11
82.202922
21
282.918922
0
LINE
8
0
10
82.202922
20
282.918922
11
81.219350
21
281.633995
0
LINE
8
0
10
81.219350
20
281.633995
11
80.598356
21
280.139733
0
LINE
8
0
10
80.598356
20
280.139733
11
80.382010
21
278.509000
0
LINE
8
0
10
80.382010
20
278.509000
11
80.598359
21
276.878267
0
LINE
8
0
10
80.598359
20
276.878267
11
81.219354
21
275.384005
0
LINE
8
0
10
81.219354
20
275.384005
11
82.202927
21
274.099078
0
LINE
8
0
10
82.202927
20
274.099078
11
83.507010
21
273.096350
0
LINE
8
0
10
83.507010
20
273.096350
11
85.027439
21
272.468345
0
LINE
8
0
10
85.027439
20
272.468345
11
86.632005
21
272.259010
0
LINE
8
0
10
86.632005
20
272.259010
11
88.236571
21
272.468345
0
LINE
8
0
10
88.236571
20
272.468345
11
89.757000
21
273.096350
0
LINE
8
0
10
89.757000
20
273.096350
11
91.061083
21
274.099078
0
LINE
8
0
10
91.061083
20
274.099078
11
92.044655
21
275.384005
0
LINE
8
0
10
92.044655
20
275.384005
11
92.665649
21
276.878267
0
LINE
8
0
10
92.665649
20
276.878267
11
92.881995
21
278.509000
0
LINE
8
0
10
92.881995
20
278.509000
11
92.882000
21
278.509000
0
LINE
8
0
10
92.882000
20
261.509000
11
92.665648
21
263.139733
0
LINE
8
0
10
92.665648
20
263.139733
11
92.044651
21
264.633995
0
LINE
8
0
10
92.044651
20
264.633995
11
91.061078
21
265.918922
0
LINE
8
0
10
91.061078
20
265.918922
11
89.756995
21
266.921650
0
LINE
8
0
10
89.756995
20
266.921650
11
88.236566
21
267.549655
0
LINE
8
0
10
88.236566
20
267.549655
11
86.632000
21
267.758990
0
LINE
8
0
10
86.632000
20
267.758990
11
85.027434
21
267.549655
0
LINE
8
0
10
85.027434
20
267.549655
11
83.507005
21
266.921650
0
LINE
8
0
10
83.507005
20
266.921650
11
82.202922
21
265.918922
0
LINE
8
0
10
82.202922
20
265.918922
11
81.219350
21
264.633995
0
LINE
8
0
10
81.219350
20
264.633995
11
80.598356
21
263.139733
0
LINE
8
0
10
80.598356
20
263.139733
11
80.382010
21
261.509000
0
LINE
8
0
10
80.382010
20
261.509000
11
80.598359
21
259.878267
0
LINE
8
0
10
80.598359
20
259.878267
11
81.219354
21
258.384005
0
LINE
8
0
10
81.219354
20
258.384005
11
82.202927
21
257.099078
0
LINE
8
0
10
82.202927
20
257.099078
11
83.507010
21
256.096350
0
LINE
8
0
10
83.507010
20
256.096350
11
85.027439
21
255.468345
0
LINE
8
0
10
85.027439
20
255.468345
11
86.632005
21
255.259010
0
LINE
8
0
10
86.632005
20
255.259010
11
88.236571
21
255.468345
0
LINE
8
0
10
88.236571
20
255.468345
11
89.757000
21
256.096350
0
LINE
8
0
10
89.757000
20
256.096350
11
91.061083
21
257.099078
0
LINE
8
0
10
91.061083
20
257.099078
11
92.044655
21
258.384005
0
LINE
8
0
10
92.044655
20
258.384005
11
92.665649
21
259.878267
0
LINE
8
0
10
92.665649
20
259.878267
11
92.881995
21
261.509000
0
LINE
8
0
10
92.881995
20
261.509000
11
92.882000
21
261.509000
0
LINE
8
0
10
122.882000
20
278.509000
11
122.665648
21
280.139733
0
LINE
8
0
10
122.665648
20
280.139733
11
122.044651
21
281.633995
0
LINE
8
0
10
122.044651
20
281.633995
11
121.061078
21
282.918922
0
LINE
8
0
10
121.061078
20
282.918922
11
119.756995
21
283.921650
0
LINE
8
0
10
119.756995
20
283.921650
11
118.236566
21
284.549655
0
LINE
8
0
10
118.236566
20
284.549655
11
116.632000
21
284.758990
0
LINE
8
0
10
116.632000
20
284.758990
11
115.027434
21
284.549655
0
LINE
8
0
10
115.027434
20
284.549655
11
113.507005
21
283.921650
0
LINE
8
0
10
113.507005
20
283.921650
11
112.202922
21
282.918922
0
LINE
8
0
10
112.202922
20
282.918922
11
111.219350
21
281.633995
0
LINE
8
0
10
111.219350
20
281.633995
11
110.598356
21
280.139733
0
LINE
8
0
10
110.598356
20
280.139733
11
110.382010
21
278.509000
0
LINE
8
0
10
110.382010
20
278.509000
11
110.598359
21
276.878267
0
LINE
8
0
10
110.598359
20
276.878267
11
111.219354
21
275.384005
0
LINE
8
0
10
111.219354
20
275.384005
11
112.202927
21
274.099078
0
LINE
8
0
10
112.202927
20
274.099078
11
113.507010
21
273.096350
0
LINE
8
0
10
113.507010
20
273.096350
11
115.027439
21
272.468345
0
LINE
8
0
10
115.027439
20
272.468345
11
116.632005
21
272.259010
0
LINE
8
0
10
116.632005
20
272.259010
11
118.236571
21
272.468345
0
LINE
8
0
10
118.236571
20
272.468345
11
119.757000
21
273.096350
0
LINE
8
0
10
119.757000
20
273.096350
11
121.061083
21
274.099078
0
LINE
8
0
10
121.061083
20
274.099078
11
122.044655
21
275.384005
0
LINE
8
0
10
122.044655
20
275.384005
11
122.665649
21
276.878267
0
LINE
8
0
10
122.665649
20
276.878267
11
122.881995
21
278.509000
0
LINE
8
0
10
122.881995
20
278.509000
11
122.882000
21
278.509000
0
LINE
8
0
10
122.882000
20
261.509000
11
122.665648
21
263.139733
0
LINE
8
0
10
122.665648
20
263.139733
11
122.044651
21
264.633995
0
LINE
8
0
10
122.044651
20
264.633995
11
121.061078
21
265.918922
0
LINE
8
0
10
121.061078
20
265.918922
11
119.756995
21
266.921650
0
LINE
8
0
10
119.756995
20
266.921650
11
118.236566
21
267.549655
0
LINE
8
0
10
118.236566
20
267.549655
11
116.632000
21
267.758990
0
LINE
8
0
10
116.632000
20
267.758990
11
115.027434
21
267.549655
0
LINE
8
0
10
115.027434
20
267.549655
11
113.507005
21
266.921650
0
LINE
8
0
10
113.507005
20
266.921650
11
112.202922
21
265.918922
0
LINE
8
0
10
112.202922
20
265.918922
11
111.219350
21
264.633995
0
LINE
8
0
10
111.219350
20
264.633995
11
110.598356
21
263.139733
0
LINE
8
0
10
110.598356
20
263.139733
11
110.382010
21
261.509000
0
LINE
8
0
10
110.382010
20
261.509000
11
110.598359
21
259.878267
0
LINE
8
0
10
110.598359
20
259.878267
11
111.219354
21
258.384005
0
LINE
8
0
10
111.219354
20
258.384005
11
112.202927
21
257.099078
0
LINE
8
0
10
112.202927
20
257.099078
11
113.507010
21
256.096350
0
LINE
8
0
10
113.507010
20
256.096350
11
115.027439
21
255.468345
0
LINE
8
0
10
115.027439
20
255.468345
11
116.632005
21
255.259010
0
LINE
8
0
10
116.632005
20
255.259010
11
118.236571
21
255.468345
0
LINE
8
0
10
118.236571
20
255.468345
11
119.757000
21
256.096350
0
LINE
8
0
10
119.757000
20
256.096350
11
121.061083
21
257.099078
0
LINE
8
0
10
121.061083
20
257.099078
11
122.044655
21
258.384005
0
LINE
8
0
10
122.044655
20
258.384005
11
122.665649
21
259.878267
0
LINE
8
0
10
122.665649
20
259.878267
11
122.881995
21
261.509000
0
LINE
8
0
10
122.881995
20
261.509000
11
122.882000
21
261.509000
0
LINE
8
0
10
152.882000
20
278.509000
11
152.665648
21
280.139733
0
LINE
8
0
10
152.665648
20
280.139733
11
152.044651
21
281.633995
0
LINE
8
0
10
152.044651
20
281.633995
11
151.061078
21
282.918922
0
LINE
8
0
10
151.061078
20
282.918922
11
149.756995
21
283.921650
0
LINE
8
0
10
149.756995
20
283.921650
11
148.236566
21
284.549655
0
LINE
8
0
10
148.236566
20
284.549655
11
146.632000
21
284.758990
0
LINE
8
0
10
146.632000
20
284.758990
11
145.027434
21
284.549655
0
LINE
8
0
10
145.027434
20
284.549655
11
143.507005
21
283.921650
0
LINE
8
0
10
143.507005
20
283.921650
11
142.202922
21
282.918922
0
LINE
8
0
10
142.202922
20
282.918922
11
141.219350
21
281.633995
0
LINE
8
0
10
141.219350
20
281.633995
11
140.598356
21
280.139733
0
LINE
8
0
10
140.598356
20
280.139733
11
140.382010
21
278.509000
0
LINE
8
0
10
140.382010
20
278.509000
11
140.598359
21
276.878267
0
LINE
8
0
10
140.598359
20
276.878267
11
141.219354
21
275.384005
0
LINE
8
0
10
141.219354
20
275.384005
11
142.202927
21
274.099078
0
LINE
8
0
10
142.202927
20
274.099078
11
143.507010
21
273.096350
0
LINE
8
0
10
143.507010
20
273.096350
11
145.027439
21
272.468345
0
LINE
8
0
10
145.027439
20
272.468345
11
146.632005
21
272.259010
0
LINE
8
0
10
146.632005
20
272.259010
11
148.236571
21
272.468345
0
LINE
8
0
10
148.236571
20
272.468345
11
149.757000
21
273.096350
0
LINE
8
0
10
149.757000
20
273.096350
11
151.061083
21
274.099078
0
LINE
8
0
10
151.061083
20
274.099078
11
152.044655
21
275.384005
0
LINE
8
0
10
152.044655
20
275.384005
11
152.665649
21
276.878267
0
LINE
8
0
10
152.665649
20
276.878267
11
152.881995
21
278.509000
0
LINE
8
0
10
152.881995
20
278.509000
11
152.882000
21
278.509000
0
LINE
8
0
10
152.882000
20
261.509000
11
152.665648
21
263.139733
0
LINE
8
0
10
152.665648
20
263.139733
11
152.044651
21
264.633995
0
LINE
8
0
10
152.044651
20
264.633995
11
151.061078
21
265.918922
0
LINE
8
0
10
151.061078
20
265.918922
11
149.756995
21
266.921650
0
LINE
8
0
10
149.756995
20
266.921650
11
148.236566
21
267.549655
0
LINE
8
0
10
148.236566
20
267.549655
11
146.632000
21
267.758990
0
LINE
8
0
10
146.632000
20
267.758990
11
145.027434
21
267.549655
0
LINE
8
0
10
145.027434
20
267.549655
11
143.507005
21
266.921650
0
LINE
8
0
10
143.507005
20
266.921650
11
142.202922
21
265.918922
0
LINE
8
0
10
142.202922
20
265.918922
11
141.219350
21
264.633995
0
LINE
8
0
10
141.219350
20
264.633995
11
140.598356
21
263.139733
0
LINE
8
0
10
140.598356
20
263.139733
11
140.382010
21
261.509000
0
LINE
8
0
10
140.382010
20
261.509000
11
140.598359
21
259.878267
0
LINE
8
0
10
140.598359
20
259.878267
11
141.219354
21
258.384005
0
LINE
8
0
10
141.219354
20
258.384005
11
142.202927
21
257.099078
0
LINE
8
0
10
142.202927
20
257.099078
11
143.507010
21
256.096350
0
LINE
8
0
10
143.507010
20
256.096350
11
145.027439
21
255.468345
0
LINE
8
0
10
145.027439
20
255.468345
11
146.632005
21
255.259010
0
LINE
8
0
10
146.632005
20
255.259010
11
148.236571
21
255.468345
0
LINE
8
0
10
148.236571
20
255.468345
11
149.757000
21
256.096350
0
LINE
8
0
10
149.757000
20
256.096350
11
151.061083
21
257.099078
0
LINE
8
0
10
151.061083
20
257.099078
11
152.044655
21
258.384005
0
LINE
8
0
10
152.044655
20
258.384005
11
152.665649
21
259.878267
0
LINE
8
0
10
152.665649
20
259.878267
11
152.881995
21
261.509000
0
LINE
8
0
10
152.881995
20
261.509000
11
152.882000
21
261.509000
 0 
ENDSEC
 0 
EOF